<svg xmlns="http://www.w3.org/2000/svg" xmlns:xlink="http://www.w3.org/1999/xlink">
    <symbol>
        <!-- ícone de carrinho -->
        <g id="hpa-cart">
            <path d="M0 0 C2.999728 0.71796769 4.86427516 2.00597378 6.62109375 4.5703125 C8.10502996 8.4665963 7.74663776 12.47929956 7.3828125 16.5703125 C10.3528125 16.5703125 13.3228125 16.5703125 16.3828125 16.5703125 C16.3828125 31.0903125 16.3828125 45.6103125 16.3828125 60.5703125 C3.8428125 60.5703125 -8.6971875 60.5703125 -21.6171875 60.5703125 C-21.6171875 46.0503125 -21.6171875 31.5303125 -21.6171875 16.5703125 C-18.6471875 16.5703125 -15.6771875 16.5703125 -12.6171875 16.5703125 C-12.70419922 15.59191406 -12.70419922 15.59191406 -12.79296875 14.59375 C-13.20845452 6.545197 -13.20845452 6.545197 -10.7421875 2.9453125 C-6.94906591 0.06254009 -4.68030593 -0.32133444 0 0 Z M-7.9921875 5.0078125 C-10.45658938 8.89398469 -9.8847562 12.02164459 -9.6171875 16.5703125 C-4.9971875 16.5703125 -0.3771875 16.5703125 4.3828125 16.5703125 C4.93629779 10.45781464 4.93629779 10.45781464 2.7578125 5.0078125 C-1.16913064 2.6309785 -4.06524436 2.6309785 -7.9921875 5.0078125 Z M-18.6171875 19.5703125 C-18.6171875 32.4403125 -18.6171875 45.3103125 -18.6171875 58.5703125 C-8.0571875 58.5703125 2.5028125 58.5703125 13.3828125 58.5703125 C13.3828125 45.7003125 13.3828125 32.8303125 13.3828125 19.5703125 C11.4028125 19.5703125 9.4228125 19.5703125 7.3828125 19.5703125 C7.3828125 21.5503125 7.3828125 23.5303125 7.3828125 25.5703125 C6.3928125 25.5703125 5.4028125 25.5703125 4.3828125 25.5703125 C4.3828125 23.5903125 4.3828125 21.6103125 4.3828125 19.5703125 C-0.2371875 19.5703125 -4.8571875 19.5703125 -9.6171875 19.5703125 C-9.6171875 21.5503125 -9.6171875 23.5303125 -9.6171875 25.5703125 C-10.6071875 25.5703125 -11.5971875 25.5703125 -12.6171875 25.5703125 C-12.6171875 23.5903125 -12.6171875 21.6103125 -12.6171875 19.5703125 C-14.5971875 19.5703125 -16.5771875 19.5703125 -18.6171875 19.5703125 Z " fill="#000000" transform="translate(32.6171875,-0.5703125)"/>
        </g>
        <!-- icone de login -->
        <g id="hpa-profile">
            <path d="M1 1L9 9L17 1" stroke="#2F2B2D"/>
        </g>
        <!-- icone de seta para esquerda pdp -->
        <g id="nav-caret--left">
            <path fill-rule="evenodd" clip-rule="evenodd" d="M7.64179 16.7469L30.4256 16.7469C31.687 16.76 32.6987 15.7483 32.6987 14.5C32.6987 13.2386 31.687 12.2269 30.4256 12.2269L7.61551 12.2269L13.2786 4.48774C14.0144 3.47601 13.8042 2.05694 12.7925 1.30799C11.7807 0.559045 10.3617 0.78242 9.61271 1.79416L1.32171 13.1072C0.730437 13.9087 0.730437 14.9862 1.32171 15.7877L9.61271 27.2059C10.3485 28.2176 11.7676 28.441 12.7925 27.7052C13.8042 26.9693 14.0407 25.5503 13.2918 24.5254L7.64179 16.7469Z" fill="#FEBBCE"/>
        </g>
        <!-- icone de seta para direita pdp -->
        <g id="nav-caret--right">
            <path fill-rule="evenodd" clip-rule="evenodd" d="M25.3445 12.2531H2.56072C1.29934 12.24 0.287598 13.2517 0.287598 14.5C0.287598 15.7614 1.29934 16.7731 2.56072 16.7731H25.3708L19.7077 24.5123C18.9719 25.524 19.1821 26.9431 20.1939 27.692C21.2056 28.441 22.6247 28.2176 23.3736 27.2058L31.6646 15.8928C32.2559 15.0913 32.2559 14.0138 31.6646 13.2123L23.3736 1.79414C22.6378 0.782402 21.2187 0.55903 20.1939 1.29484C19.1821 2.03065 18.9456 3.44971 19.6946 4.47459L25.3445 12.2531Z" fill="#FEBBCE"/>
        </g>
    </symbol>
</svg>
